# xmcd
#
# Track frame offsets: 
#        150
#        14850
#        31433
#        48956
#        66388
#        85932
#        107529
#        125339
#        139042
#        144984
#        166721
#        190866
#
# Disc length: 2750 seconds
#
# Revision: 0
# Processed by: cddbd v1.5.2PL0 Copyright (c) Steve Scherf et al.
# Submitted via: ExactAudioCopy v1.1
#
DISCID=a10abc0c
DTITLE=Beyonce - Lemonade
DYEAR=2016
DGENRE=Pop
TTITLE0=Pray You Catch Me
TTITLE1=Hold Up
TTITLE2=Don't Hurt Yourself (F. Jack White)
TTITLE3=Sorry
TTITLE4=6 Inch (F. The Weekend)
TTITLE5=Daddy Lessons
TTITLE6=Love Drought
TTITLE7=Sandcastles
TTITLE8=Forward (F. James Blake)
TTITLE9=Freedom (F. Kendrick Lamar)
TTITLE10=All Night
TTITLE11=Formation
EXTD=
EXTT0=
EXTT1=
EXTT2=
EXTT3=
EXTT4=
EXTT5=
EXTT6=
EXTT7=
EXTT8=
EXTT9=
EXTT10=
EXTT11=
PLAYORDER=
